<svg id="Logo" viewBox="0 0 1276 329.81" fill="none" xmlns="http://www.w3.org/2000/svg">
	<path d="M329.22,309.21c-28.67,26.06-66.82,44.12-112.43,44.12C132.1,353.33,53,290.79,53,196.61c0-88.79,71.84-157.1,165.28-157.1C257,40.07,298.5,57,329.22,84.93m-45.79,58.81C265,127,240.62,116,218.47,116c-46.16,0-84.69,35.18-84.69,81.15,0,46.54,40.2,80.78,83,80.78,25.13,0,47.65-11.91,67-29.22" transform="translate(-45 -31.51)" style="fill:none;stroke:#fff;stroke-linejoin:round;stroke-width:16px"/><path d="M570.47,346.63l-15.08-35h-112l-15.26,35m-87.11,0L480.38,42.86h37.78l139.6,303.77M468.47,253.37h61.61l-30.72-71.1" transform="translate(-45 -31.51)" style="fill:none;stroke:#fff;stroke-linejoin:round;stroke-width:16px"/><path d="M828.28,137.6c-8.93-15.82-32-22.71-46.34-22.71-16.38,0-28.11,8.38-28.11,18.62,0,13.77,21.22,18.24,53.61,31.83,46.9,19.72,78,48.39,78,92.69,0,57.14-53.24,92.69-113.36,92.69-49.32,0-94.18-21.78-109.26-54.91M711,248.53c12.47,18.43,35.74,29.6,60.87,29.6,16.93,0,33.5-6.14,33.5-18.43,0-15.44-30.71-29-60.12-42.06-38-16.38-70.54-41.32-70.54-86.55,0-51.93,49.32-89,106.28-89,45.79,0,81.52,21.59,93.25,51.18" transform="translate(-45 -31.51)" style="fill:none;stroke:#fff;stroke-linejoin:round;stroke-width:16px"/><path d="M921.93,346.63v-300m79.66,0v300" transform="translate(-45 -31.51)" style="stroke:#fff;stroke-linejoin:round;stroke-width:16px"/><path d="M1313,46.21V349.6h-25.31l-154.3-149.46V346.81m-79.67,0V43.61h25.69l153.74,148.9V46.21" transform="translate(-45 -31.51)" style="fill:none;stroke:#fff;stroke-linejoin:round;stroke-width:16px"/>
</svg>